<svg width="46" height="54" viewBox="0 0 46 54" fill="none" xmlns="http://www.w3.org/2000/svg">
<path d="M46 17.1586C46 7.67862 35.7116 0.000593701 22.9575 0.000593701C10.2884 -0.0777535 0 7.60028 0 17.1586C0 26.6387 10.2884 34.3167 23.0425 34.3167C24.1479 34.3167 25.2532 34.2383 26.3586 34.16C31.1201 37.6073 35.9667 38.4691 36.0518 38.3124C34.3512 36.7454 33.3309 34.7084 32.7357 32.7497C40.4732 30.0076 46 24.0532 46 17.1586Z" transform="translate(0 1.12744)" fill="#3AD0F9"/>
<path d="M44.878 5.53095C44.878 4.16716 44.6296 2.87913 44.2156 1.5911C44.2156 1.74263 44.2156 1.89416 44.2156 2.04569C44.2156 9.92541 34.5279 16.3656 22.6046 16.3656C10.7641 16.2898 1.07641 9.92541 1.07641 1.96993C1.07641 1.28803 1.15921 0.6819 1.24201 1.15611e-06C0.414004 1.74263 -1.97413e-08 3.56102 -1.97413e-08 5.45519C-1.97413e-08 14.6229 10.0189 22.0481 22.439 22.0481C23.5154 22.0481 24.5918 21.9723 25.6683 21.8965C30.3051 25.2302 35.0247 26.0637 35.1075 25.9121C33.4515 24.3968 32.4579 22.4269 31.8783 20.5327C39.496 17.9567 44.878 12.1984 44.878 5.53095Z" transform="translate(0 13.5283)" fill="#03B3F9"/>
<mask id="path-3-inside-1" fill="white">
<path d="M35.4346 40.5845C34.6219 40.5845 30.2332 39.55 25.9258 36.3669C24.8693 36.4465 22.8375 36.6056 21.9435 36.6056C9.26502 36.6056 0 28.3296 0 18.3028C0 8.19648 10.3216 0 23 0C35.6784 0 46 8.19648 46 18.3028C46 25.2261 41.0424 31.5127 33.3216 34.6162C33.9717 36.5261 34.947 38.038 36.0848 39.2317C36.3286 39.4704 36.4099 39.8683 36.2473 40.1866C36.0035 40.4254 35.6784 40.5845 35.4346 40.5845Z"/>
</mask>
<path d="M35.4346 40.5845C34.6219 40.5845 30.2332 39.55 25.9258 36.3669C24.8693 36.4465 22.8375 36.6056 21.9435 36.6056C9.26502 36.6056 0 28.3296 0 18.3028C0 8.19648 10.3216 0 23 0C35.6784 0 46 8.19648 46 18.3028C46 25.2261 41.0424 31.5127 33.3216 34.6162C33.9717 36.5261 34.947 38.038 36.0848 39.2317C36.3286 39.4704 36.4099 39.8683 36.2473 40.1866C36.0035 40.4254 35.6784 40.5845 35.4346 40.5845Z" stroke="#0C508E" stroke-width="2" mask="url(#path-3-inside-1)"/>
<path d="M2.64233 -1.28171e-06C1.19331 -1.28171e-06 -3.25152e-07 1.17598 -3.25152e-07 2.60395C-3.25152e-07 4.03193 1.19331 5.2079 2.64233 5.2079C4.09136 5.2079 5.28467 4.03193 5.28467 2.60395C5.28467 1.17598 4.09136 -1.28171e-06 2.64233 -1.28171e-06ZM11.166 -1.28171e-06C9.71697 -1.28171e-06 8.52366 1.17598 8.52366 2.60395C8.52366 4.03193 9.71697 5.2079 11.166 5.2079C12.615 5.2079 13.8083 4.03193 13.8083 2.60395C13.8936 1.17598 12.7002 -1.28171e-06 11.166 -1.28171e-06ZM20.542 -1.28171e-06C19.093 -1.28171e-06 17.8997 1.17598 17.8997 2.60395C17.8997 4.03193 19.093 5.2079 20.542 5.2079C21.991 5.2079 23.1843 4.03193 23.1843 2.60395C23.2696 1.17598 22.0763 -1.28171e-06 20.542 -1.28171e-06Z" transform="translate(11.1521 15.6729)" fill="white"/>
<path d="M22.1615 6.71988C20.2863 6.71988 18.752 5.2079 18.752 3.35994C18.752 1.51197 20.2863 0 22.1615 0C24.0367 0 25.571 1.51197 25.571 3.35994C25.571 5.2079 24.0367 6.71988 22.1615 6.71988ZM22.1615 1.67997C21.2239 1.67997 20.4568 2.43595 20.4568 3.35994C20.4568 4.28392 21.2239 5.03991 22.1615 5.03991C23.0991 5.03991 23.8662 4.28392 23.8662 3.35994C23.8662 2.43595 23.0991 1.67997 22.1615 1.67997ZM12.7855 6.71988C10.9103 6.71988 9.37602 5.2079 9.37602 3.35994C9.37602 1.51197 10.9103 0 12.7855 0C14.6607 0 16.195 1.51197 16.195 3.35994C16.195 5.2079 14.6607 6.71988 12.7855 6.71988ZM12.7855 1.67997C11.8479 1.67997 11.0808 2.43595 11.0808 3.35994C11.0808 4.28392 11.8479 5.03991 12.7855 5.03991C13.7231 5.03991 14.4902 4.28392 14.4902 3.35994C14.4902 2.43595 13.7231 1.67997 12.7855 1.67997ZM3.40946 6.71988C1.53426 6.71988 0 5.2079 0 3.35994C0 1.51197 1.53426 0 3.40946 0C5.28467 0 6.81893 1.51197 6.81893 3.35994C6.81893 5.2079 5.28467 6.71988 3.40946 6.71988ZM3.40946 1.67997C2.47186 1.67997 1.70473 2.43595 1.70473 3.35994C1.70473 4.28392 2.47186 5.03991 3.40946 5.03991C4.34707 5.03991 5.11419 4.28392 5.11419 3.35994C5.11419 2.43595 4.34707 1.67997 3.40946 1.67997Z" transform="translate(10.0975 14.6553)" fill="#0C508E"/>
<path opacity="0.15" d="M16.1561 3.38204C25.0789 3.38204 32.3122 2.62495 32.3122 1.69102C32.3122 0.757096 25.0789 0 16.1561 0C7.23333 0 0 0.757096 0 1.69102C0 2.62495 7.23333 3.38204 16.1561 3.38204Z" transform="translate(7.06836 50.6177)" fill="#191816"/>
</svg>
